<svg width="359" height="54" viewBox="0 0 359 54" fill="none" xmlns="http://www.w3.org/2000/svg">
<path fill-rule="evenodd" clip-rule="evenodd" d="M157.379 1.00578C133.573 2.10102 87.862 12.1692 44.8642 25.788C41.3968 26.8864 36.8289 28.3342 34.7132 29.0054C6.18439 38.0575 -9.15869 43.766 -19.8984 49.3245C-24.0897 51.4939 -24.4498 51.7569 -24.3389 52.5675C-24.1769 53.7503 -23.495 53.5676 -15.7177 50.2578C-7.66981 46.8329 -0.456453 44.3461 19.3265 38.1763C85.4454 17.5554 116.328 9.99573 150.968 5.95228C157.756 5.15982 168.599 5.29782 168.599 6.17654C168.599 7.3503 161.798 11.3533 146.053 19.4477C126.683 29.406 114.891 36.0117 113.846 37.4898C112.062 40.0153 114.024 41.8378 118.271 41.5989C120.698 41.4625 121.249 41.3592 132.376 38.9559C164.321 32.0558 184.738 28.5538 212.408 25.228C254.545 20.1632 281.393 18.2948 331.868 16.9138C350.005 16.4177 350.943 16.3484 354.291 15.2623C355.581 14.8436 357.123 14.4344 357.716 14.3528C359.107 14.1619 359.09 13.9178 357.673 13.7377C357.056 13.6592 355.638 13.2846 354.521 12.905C351.768 11.9693 349.943 11.9204 334.219 12.3609C281.508 13.8377 253.773 15.7263 213.583 20.5753C192.447 23.1254 183.028 24.511 167.637 27.3349C157.115 29.2653 129.343 34.8853 125.452 35.871C123.329 36.4089 132.544 31.3348 148.728 23.0535C169.201 12.5779 173.276 9.73277 173.295 5.90539C173.317 1.58945 169.596 0.444002 157.379 1.00578Z" fill="#00634B"/>
</svg>
